<mxfile host="Electron" modified="2025-06-10T05:54:46.271Z" agent="Mozilla/5.0 (Windows NT 10.0; Win64; x64) AppleWebKit/537.36 (KHTML, like Gecko) draw.io/24.2.5 Chrome/120.0.6099.109 Electron/28.1.0 Safari/537.36" etag="62dLfJv0H6EZPLURk3ZZ" version="24.2.5" type="device">
  <diagram name="第 1 页" id="gRTzhjpInwyJEftYWM1j">
    <mxGraphModel dx="2963" dy="1710" grid="0" gridSize="10" guides="1" tooltips="1" connect="1" arrows="1" fold="1" page="0" pageScale="1" pageWidth="827" pageHeight="1169" math="0" shadow="0">
      <root>
        <mxCell id="0" />
        <mxCell id="1" parent="0" />
        <mxCell id="VmN694eaUHmi7oUAj-pI-1" value="正则表达式" style="rounded=1;whiteSpace=wrap;html=1;fillColor=#000000;fontColor=#ffffff;strokeColor=#A50040;fontStyle=1;fontSize=22;" parent="1" vertex="1">
          <mxGeometry x="687.5" y="631" width="205" height="80" as="geometry" />
        </mxCell>
        <mxCell id="VmN694eaUHmi7oUAj-pI-17" style="edgeStyle=orthogonalEdgeStyle;shape=connector;curved=0;rounded=1;orthogonalLoop=1;jettySize=auto;html=1;exitX=0.5;exitY=1;exitDx=0;exitDy=0;entryX=0.5;entryY=0;entryDx=0;entryDy=0;labelBackgroundColor=default;strokeColor=#d6b656;align=center;verticalAlign=middle;fontFamily=Helvetica;fontSize=11;fontColor=default;endArrow=none;endFill=0;fillColor=#fff2cc;" parent="1" source="VmN694eaUHmi7oUAj-pI-4" target="VmN694eaUHmi7oUAj-pI-9" edge="1">
          <mxGeometry relative="1" as="geometry" />
        </mxCell>
        <mxCell id="VmN694eaUHmi7oUAj-pI-18" style="edgeStyle=orthogonalEdgeStyle;shape=connector;curved=0;rounded=1;orthogonalLoop=1;jettySize=auto;html=1;exitX=0.5;exitY=1;exitDx=0;exitDy=0;entryX=0.5;entryY=0;entryDx=0;entryDy=0;labelBackgroundColor=default;strokeColor=#d6b656;align=center;verticalAlign=middle;fontFamily=Helvetica;fontSize=11;fontColor=default;endArrow=none;endFill=0;fillColor=#fff2cc;" parent="1" source="VmN694eaUHmi7oUAj-pI-4" target="VmN694eaUHmi7oUAj-pI-12" edge="1">
          <mxGeometry relative="1" as="geometry" />
        </mxCell>
        <mxCell id="VmN694eaUHmi7oUAj-pI-19" style="edgeStyle=orthogonalEdgeStyle;shape=connector;curved=0;rounded=1;orthogonalLoop=1;jettySize=auto;html=1;exitX=0.5;exitY=1;exitDx=0;exitDy=0;entryX=0.5;entryY=0;entryDx=0;entryDy=0;labelBackgroundColor=default;strokeColor=#d6b656;align=center;verticalAlign=middle;fontFamily=Helvetica;fontSize=11;fontColor=default;endArrow=none;endFill=0;fillColor=#fff2cc;" parent="1" source="VmN694eaUHmi7oUAj-pI-4" target="VmN694eaUHmi7oUAj-pI-5" edge="1">
          <mxGeometry relative="1" as="geometry" />
        </mxCell>
        <mxCell id="VmN694eaUHmi7oUAj-pI-20" style="edgeStyle=orthogonalEdgeStyle;shape=connector;curved=0;rounded=1;orthogonalLoop=1;jettySize=auto;html=1;exitX=0.5;exitY=1;exitDx=0;exitDy=0;labelBackgroundColor=default;strokeColor=#d6b656;align=center;verticalAlign=middle;fontFamily=Helvetica;fontSize=11;fontColor=default;endArrow=none;endFill=0;fillColor=#fff2cc;" parent="1" source="VmN694eaUHmi7oUAj-pI-4" target="VmN694eaUHmi7oUAj-pI-15" edge="1">
          <mxGeometry relative="1" as="geometry" />
        </mxCell>
        <mxCell id="6_15xKx9rI8Wvk1WQRDn-5" style="edgeStyle=orthogonalEdgeStyle;curved=0;rounded=1;orthogonalLoop=1;jettySize=auto;html=1;exitX=0.5;exitY=1;exitDx=0;exitDy=0;entryX=0.5;entryY=0;entryDx=0;entryDy=0;strokeColor=#d6b656;align=center;verticalAlign=middle;fontFamily=Helvetica;fontSize=11;fontColor=default;labelBackgroundColor=default;endArrow=none;endFill=0;fillColor=#fff2cc;" edge="1" parent="1" source="VmN694eaUHmi7oUAj-pI-4" target="6_15xKx9rI8Wvk1WQRDn-1">
          <mxGeometry relative="1" as="geometry" />
        </mxCell>
        <mxCell id="6_15xKx9rI8Wvk1WQRDn-6" style="edgeStyle=orthogonalEdgeStyle;curved=0;rounded=1;orthogonalLoop=1;jettySize=auto;html=1;exitX=0.5;exitY=1;exitDx=0;exitDy=0;entryX=0.5;entryY=0;entryDx=0;entryDy=0;strokeColor=#d6b656;align=center;verticalAlign=middle;fontFamily=Helvetica;fontSize=11;fontColor=default;labelBackgroundColor=default;endArrow=none;endFill=0;fillColor=#fff2cc;" edge="1" parent="1" source="VmN694eaUHmi7oUAj-pI-4" target="6_15xKx9rI8Wvk1WQRDn-2">
          <mxGeometry relative="1" as="geometry" />
        </mxCell>
        <mxCell id="VmN694eaUHmi7oUAj-pI-4" value="特殊单字符" style="rounded=1;whiteSpace=wrap;html=1;fillColor=#a20025;strokeColor=#6F0000;fontColor=#ffffff;fontStyle=1" parent="1" vertex="1">
          <mxGeometry x="340" y="350" width="80" height="40" as="geometry" />
        </mxCell>
        <mxCell id="VmN694eaUHmi7oUAj-pI-7" style="edgeStyle=orthogonalEdgeStyle;rounded=1;orthogonalLoop=1;jettySize=auto;html=1;exitX=0.5;exitY=1;exitDx=0;exitDy=0;entryX=0.5;entryY=0;entryDx=0;entryDy=0;endArrow=none;endFill=0;curved=0;fillColor=#fff2cc;strokeColor=#d6b656;" parent="1" source="VmN694eaUHmi7oUAj-pI-5" target="VmN694eaUHmi7oUAj-pI-6" edge="1">
          <mxGeometry relative="1" as="geometry" />
        </mxCell>
        <mxCell id="VmN694eaUHmi7oUAj-pI-5" value=".(dot)" style="rounded=1;whiteSpace=wrap;html=1;fillColor=#fff2cc;strokeColor=#d6b656;" parent="1" vertex="1">
          <mxGeometry x="75" y="430" width="60" height="40" as="geometry" />
        </mxCell>
        <mxCell id="VmN694eaUHmi7oUAj-pI-6" value="任意字符&lt;br&gt;（\n除外）" style="rounded=1;whiteSpace=wrap;html=1;fillColor=#fff2cc;strokeColor=#d6b656;" parent="1" vertex="1">
          <mxGeometry x="70" y="500" width="70" height="40" as="geometry" />
        </mxCell>
        <mxCell id="VmN694eaUHmi7oUAj-pI-8" style="edgeStyle=orthogonalEdgeStyle;rounded=1;orthogonalLoop=1;jettySize=auto;html=1;exitX=0.5;exitY=1;exitDx=0;exitDy=0;entryX=0.5;entryY=0;entryDx=0;entryDy=0;endArrow=none;endFill=0;curved=0;fillColor=#fff2cc;strokeColor=#d6b656;" parent="1" source="VmN694eaUHmi7oUAj-pI-9" target="VmN694eaUHmi7oUAj-pI-10" edge="1">
          <mxGeometry relative="1" as="geometry" />
        </mxCell>
        <mxCell id="VmN694eaUHmi7oUAj-pI-9" value="/d" style="rounded=1;whiteSpace=wrap;html=1;fillColor=#fff2cc;strokeColor=#d6b656;" parent="1" vertex="1">
          <mxGeometry x="180" y="430" width="60" height="40" as="geometry" />
        </mxCell>
        <mxCell id="VmN694eaUHmi7oUAj-pI-10" value="任意数字" style="rounded=1;whiteSpace=wrap;html=1;fillColor=#fff2cc;strokeColor=#d6b656;" parent="1" vertex="1">
          <mxGeometry x="175" y="500" width="70" height="40" as="geometry" />
        </mxCell>
        <mxCell id="VmN694eaUHmi7oUAj-pI-11" style="edgeStyle=orthogonalEdgeStyle;rounded=1;orthogonalLoop=1;jettySize=auto;html=1;exitX=0.5;exitY=1;exitDx=0;exitDy=0;entryX=0.5;entryY=0;entryDx=0;entryDy=0;endArrow=none;endFill=0;curved=0;fillColor=#fff2cc;strokeColor=#d6b656;" parent="1" source="VmN694eaUHmi7oUAj-pI-12" target="VmN694eaUHmi7oUAj-pI-13" edge="1">
          <mxGeometry relative="1" as="geometry" />
        </mxCell>
        <mxCell id="VmN694eaUHmi7oUAj-pI-12" value="/w" style="rounded=1;whiteSpace=wrap;html=1;fillColor=#fff2cc;strokeColor=#d6b656;" parent="1" vertex="1">
          <mxGeometry x="290" y="430" width="60" height="40" as="geometry" />
        </mxCell>
        <mxCell id="VmN694eaUHmi7oUAj-pI-13" value="任意字符数字下划线" style="rounded=1;whiteSpace=wrap;html=1;fillColor=#fff2cc;strokeColor=#d6b656;" parent="1" vertex="1">
          <mxGeometry x="260" y="500" width="120" height="40" as="geometry" />
        </mxCell>
        <mxCell id="VmN694eaUHmi7oUAj-pI-14" style="edgeStyle=orthogonalEdgeStyle;rounded=1;orthogonalLoop=1;jettySize=auto;html=1;exitX=0.5;exitY=1;exitDx=0;exitDy=0;entryX=0.5;entryY=0;entryDx=0;entryDy=0;endArrow=none;endFill=0;curved=0;fillColor=#fff2cc;strokeColor=#d6b656;" parent="1" source="VmN694eaUHmi7oUAj-pI-15" target="VmN694eaUHmi7oUAj-pI-16" edge="1">
          <mxGeometry relative="1" as="geometry" />
        </mxCell>
        <mxCell id="VmN694eaUHmi7oUAj-pI-15" value="/s" style="rounded=1;whiteSpace=wrap;html=1;fillColor=#fff2cc;strokeColor=#d6b656;" parent="1" vertex="1">
          <mxGeometry x="410" y="430" width="60" height="40" as="geometry" />
        </mxCell>
        <mxCell id="VmN694eaUHmi7oUAj-pI-16" value="任意空白符" style="rounded=1;whiteSpace=wrap;html=1;fillColor=#fff2cc;strokeColor=#d6b656;" parent="1" vertex="1">
          <mxGeometry x="405" y="500" width="70" height="40" as="geometry" />
        </mxCell>
        <mxCell id="VmN694eaUHmi7oUAj-pI-194" value="" style="group" parent="1" vertex="1" connectable="0">
          <mxGeometry x="90" y="790" width="375" height="200" as="geometry" />
        </mxCell>
        <mxCell id="VmN694eaUHmi7oUAj-pI-148" value="分组引用" style="rounded=1;whiteSpace=wrap;html=1;fillColor=#006666;strokeColor=#006666;fontColor=#ffffff;fontStyle=1" parent="VmN694eaUHmi7oUAj-pI-194" vertex="1">
          <mxGeometry x="135" width="80" height="40" as="geometry" />
        </mxCell>
        <mxCell id="VmN694eaUHmi7oUAj-pI-149" value="()" style="rounded=1;whiteSpace=wrap;html=1;fillColor=#CCFFE6;strokeColor=#006666;" parent="VmN694eaUHmi7oUAj-pI-194" vertex="1">
          <mxGeometry y="85" width="60" height="40" as="geometry" />
        </mxCell>
        <mxCell id="VmN694eaUHmi7oUAj-pI-150" style="edgeStyle=orthogonalEdgeStyle;shape=connector;curved=0;rounded=1;orthogonalLoop=1;jettySize=auto;html=1;exitX=0.5;exitY=1;exitDx=0;exitDy=0;entryX=0.5;entryY=0;entryDx=0;entryDy=0;labelBackgroundColor=default;strokeColor=#006666;align=center;verticalAlign=middle;fontFamily=Helvetica;fontSize=11;fontColor=default;endArrow=none;endFill=0;" parent="VmN694eaUHmi7oUAj-pI-194" source="VmN694eaUHmi7oUAj-pI-148" target="VmN694eaUHmi7oUAj-pI-149" edge="1">
          <mxGeometry relative="1" as="geometry" />
        </mxCell>
        <mxCell id="VmN694eaUHmi7oUAj-pI-156" value="\0" style="rounded=1;whiteSpace=wrap;html=1;fillColor=#CCFFE6;strokeColor=#006666;" parent="VmN694eaUHmi7oUAj-pI-194" vertex="1">
          <mxGeometry x="110" y="85" width="50" height="40" as="geometry" />
        </mxCell>
        <mxCell id="VmN694eaUHmi7oUAj-pI-163" style="edgeStyle=orthogonalEdgeStyle;shape=connector;curved=0;rounded=1;orthogonalLoop=1;jettySize=auto;html=1;exitX=0.5;exitY=1;exitDx=0;exitDy=0;entryX=0.5;entryY=0;entryDx=0;entryDy=0;labelBackgroundColor=default;strokeColor=#006666;align=center;verticalAlign=middle;fontFamily=Helvetica;fontSize=11;fontColor=default;endArrow=none;endFill=0;" parent="VmN694eaUHmi7oUAj-pI-194" source="VmN694eaUHmi7oUAj-pI-148" target="VmN694eaUHmi7oUAj-pI-156" edge="1">
          <mxGeometry relative="1" as="geometry" />
        </mxCell>
        <mxCell id="VmN694eaUHmi7oUAj-pI-157" value="分组" style="rounded=1;whiteSpace=wrap;html=1;fillColor=#CCFFE6;strokeColor=#006666;" parent="VmN694eaUHmi7oUAj-pI-194" vertex="1">
          <mxGeometry y="160" width="60" height="40" as="geometry" />
        </mxCell>
        <mxCell id="VmN694eaUHmi7oUAj-pI-165" style="edgeStyle=orthogonalEdgeStyle;shape=connector;curved=0;rounded=1;orthogonalLoop=1;jettySize=auto;html=1;exitX=0.5;exitY=1;exitDx=0;exitDy=0;entryX=0.5;entryY=0;entryDx=0;entryDy=0;labelBackgroundColor=default;strokeColor=#006666;align=center;verticalAlign=middle;fontFamily=Helvetica;fontSize=11;fontColor=default;endArrow=none;endFill=0;" parent="VmN694eaUHmi7oUAj-pI-194" source="VmN694eaUHmi7oUAj-pI-149" target="VmN694eaUHmi7oUAj-pI-157" edge="1">
          <mxGeometry relative="1" as="geometry" />
        </mxCell>
        <mxCell id="VmN694eaUHmi7oUAj-pI-158" value="正则全部引用" style="rounded=1;whiteSpace=wrap;html=1;fillColor=#CCFFE6;strokeColor=#006666;" parent="VmN694eaUHmi7oUAj-pI-194" vertex="1">
          <mxGeometry x="125" y="160" width="90" height="40" as="geometry" />
        </mxCell>
        <mxCell id="VmN694eaUHmi7oUAj-pI-160" style="edgeStyle=orthogonalEdgeStyle;shape=connector;curved=0;rounded=1;orthogonalLoop=1;jettySize=auto;html=1;exitX=0.5;exitY=1;exitDx=0;exitDy=0;entryX=0.5;entryY=0;entryDx=0;entryDy=0;labelBackgroundColor=default;strokeColor=#006666;align=center;verticalAlign=middle;fontFamily=Helvetica;fontSize=11;fontColor=default;endArrow=none;endFill=0;" parent="VmN694eaUHmi7oUAj-pI-194" source="VmN694eaUHmi7oUAj-pI-156" target="VmN694eaUHmi7oUAj-pI-158" edge="1">
          <mxGeometry relative="1" as="geometry" />
        </mxCell>
        <mxCell id="VmN694eaUHmi7oUAj-pI-162" style="edgeStyle=orthogonalEdgeStyle;shape=connector;curved=0;rounded=1;orthogonalLoop=1;jettySize=auto;html=1;exitX=0.5;exitY=1;exitDx=0;exitDy=0;entryX=0.5;entryY=0;entryDx=0;entryDy=0;labelBackgroundColor=default;strokeColor=#006666;align=center;verticalAlign=middle;fontFamily=Helvetica;fontSize=11;fontColor=default;endArrow=none;endFill=0;" parent="VmN694eaUHmi7oUAj-pI-194" source="VmN694eaUHmi7oUAj-pI-159" target="VmN694eaUHmi7oUAj-pI-158" edge="1">
          <mxGeometry relative="1" as="geometry" />
        </mxCell>
        <mxCell id="VmN694eaUHmi7oUAj-pI-159" value="&amp;amp;" style="rounded=1;whiteSpace=wrap;html=1;fillColor=#CCFFE6;strokeColor=#006666;" parent="VmN694eaUHmi7oUAj-pI-194" vertex="1">
          <mxGeometry x="185" y="85" width="50" height="40" as="geometry" />
        </mxCell>
        <mxCell id="VmN694eaUHmi7oUAj-pI-164" style="edgeStyle=orthogonalEdgeStyle;shape=connector;curved=0;rounded=1;orthogonalLoop=1;jettySize=auto;html=1;exitX=0.5;exitY=1;exitDx=0;exitDy=0;entryX=0.5;entryY=0;entryDx=0;entryDy=0;labelBackgroundColor=default;strokeColor=#006666;align=center;verticalAlign=middle;fontFamily=Helvetica;fontSize=11;fontColor=default;endArrow=none;endFill=0;" parent="VmN694eaUHmi7oUAj-pI-194" source="VmN694eaUHmi7oUAj-pI-148" target="VmN694eaUHmi7oUAj-pI-159" edge="1">
          <mxGeometry relative="1" as="geometry" />
        </mxCell>
        <mxCell id="VmN694eaUHmi7oUAj-pI-166" value="括号嵌套" style="rounded=1;whiteSpace=wrap;html=1;fillColor=#CCFFE6;strokeColor=#006666;" parent="VmN694eaUHmi7oUAj-pI-194" vertex="1">
          <mxGeometry x="290" y="85" width="60" height="40" as="geometry" />
        </mxCell>
        <mxCell id="VmN694eaUHmi7oUAj-pI-169" style="edgeStyle=orthogonalEdgeStyle;shape=connector;curved=0;rounded=1;orthogonalLoop=1;jettySize=auto;html=1;exitX=0.5;exitY=1;exitDx=0;exitDy=0;entryX=0.5;entryY=0;entryDx=0;entryDy=0;labelBackgroundColor=default;strokeColor=#006666;align=center;verticalAlign=middle;fontFamily=Helvetica;fontSize=11;fontColor=default;endArrow=none;endFill=0;" parent="VmN694eaUHmi7oUAj-pI-194" source="VmN694eaUHmi7oUAj-pI-148" target="VmN694eaUHmi7oUAj-pI-166" edge="1">
          <mxGeometry relative="1" as="geometry" />
        </mxCell>
        <mxCell id="VmN694eaUHmi7oUAj-pI-167" value="按左括号顺序引用" style="rounded=1;whiteSpace=wrap;html=1;fillColor=#CCFFE6;strokeColor=#006666;" parent="VmN694eaUHmi7oUAj-pI-194" vertex="1">
          <mxGeometry x="265" y="160" width="110" height="40" as="geometry" />
        </mxCell>
        <mxCell id="VmN694eaUHmi7oUAj-pI-168" style="edgeStyle=orthogonalEdgeStyle;shape=connector;curved=0;rounded=1;orthogonalLoop=1;jettySize=auto;html=1;exitX=0.5;exitY=1;exitDx=0;exitDy=0;entryX=0.5;entryY=0;entryDx=0;entryDy=0;labelBackgroundColor=default;strokeColor=#006666;align=center;verticalAlign=middle;fontFamily=Helvetica;fontSize=11;fontColor=default;endArrow=none;endFill=0;" parent="VmN694eaUHmi7oUAj-pI-194" source="VmN694eaUHmi7oUAj-pI-166" target="VmN694eaUHmi7oUAj-pI-167" edge="1">
          <mxGeometry relative="1" as="geometry" />
        </mxCell>
        <mxCell id="VmN694eaUHmi7oUAj-pI-196" value="" style="group" parent="1" vertex="1" connectable="0">
          <mxGeometry x="920" y="350" width="385" height="190" as="geometry" />
        </mxCell>
        <mxCell id="VmN694eaUHmi7oUAj-pI-44" value="量词" style="rounded=1;whiteSpace=wrap;html=1;fillColor=#0050ef;strokeColor=#001DBC;fontStyle=1;fontColor=#ffffff;" parent="VmN694eaUHmi7oUAj-pI-196" vertex="1">
          <mxGeometry x="155" width="80" height="40" as="geometry" />
        </mxCell>
        <mxCell id="VmN694eaUHmi7oUAj-pI-45" value="*" style="rounded=1;whiteSpace=wrap;html=1;fillColor=#dae8fc;strokeColor=#6c8ebf;" parent="VmN694eaUHmi7oUAj-pI-196" vertex="1">
          <mxGeometry x="5" y="80" width="60" height="40" as="geometry" />
        </mxCell>
        <mxCell id="VmN694eaUHmi7oUAj-pI-58" style="edgeStyle=orthogonalEdgeStyle;shape=connector;curved=0;rounded=1;orthogonalLoop=1;jettySize=auto;html=1;exitX=0.5;exitY=1;exitDx=0;exitDy=0;entryX=0.5;entryY=0;entryDx=0;entryDy=0;labelBackgroundColor=default;strokeColor=#6c8ebf;align=center;verticalAlign=middle;fontFamily=Helvetica;fontSize=11;fontColor=default;endArrow=none;endFill=0;fillColor=#dae8fc;" parent="VmN694eaUHmi7oUAj-pI-196" source="VmN694eaUHmi7oUAj-pI-44" target="VmN694eaUHmi7oUAj-pI-45" edge="1">
          <mxGeometry relative="1" as="geometry" />
        </mxCell>
        <mxCell id="VmN694eaUHmi7oUAj-pI-46" value="0到多次" style="rounded=1;whiteSpace=wrap;html=1;fillColor=#dae8fc;strokeColor=#6c8ebf;" parent="VmN694eaUHmi7oUAj-pI-196" vertex="1">
          <mxGeometry y="150" width="70" height="40" as="geometry" />
        </mxCell>
        <mxCell id="VmN694eaUHmi7oUAj-pI-151" style="edgeStyle=orthogonalEdgeStyle;shape=connector;curved=0;rounded=1;orthogonalLoop=1;jettySize=auto;html=1;exitX=0.5;exitY=1;exitDx=0;exitDy=0;entryX=0.5;entryY=0;entryDx=0;entryDy=0;labelBackgroundColor=default;strokeColor=#6c8ebf;align=center;verticalAlign=middle;fontFamily=Helvetica;fontSize=11;fontColor=default;endArrow=none;endFill=0;fillColor=#dae8fc;" parent="VmN694eaUHmi7oUAj-pI-196" source="VmN694eaUHmi7oUAj-pI-45" target="VmN694eaUHmi7oUAj-pI-46" edge="1">
          <mxGeometry relative="1" as="geometry" />
        </mxCell>
        <mxCell id="VmN694eaUHmi7oUAj-pI-50" value="+" style="rounded=1;whiteSpace=wrap;html=1;fillColor=#dae8fc;strokeColor=#6c8ebf;" parent="VmN694eaUHmi7oUAj-pI-196" vertex="1">
          <mxGeometry x="110" y="80" width="60" height="40" as="geometry" />
        </mxCell>
        <mxCell id="VmN694eaUHmi7oUAj-pI-56" style="edgeStyle=orthogonalEdgeStyle;shape=connector;curved=0;rounded=1;orthogonalLoop=1;jettySize=auto;html=1;exitX=0.5;exitY=1;exitDx=0;exitDy=0;entryX=0.5;entryY=0;entryDx=0;entryDy=0;labelBackgroundColor=default;strokeColor=#6c8ebf;align=center;verticalAlign=middle;fontFamily=Helvetica;fontSize=11;fontColor=default;endArrow=none;endFill=0;fillColor=#dae8fc;" parent="VmN694eaUHmi7oUAj-pI-196" source="VmN694eaUHmi7oUAj-pI-44" target="VmN694eaUHmi7oUAj-pI-50" edge="1">
          <mxGeometry relative="1" as="geometry" />
        </mxCell>
        <mxCell id="VmN694eaUHmi7oUAj-pI-51" value="1到多次" style="rounded=1;whiteSpace=wrap;html=1;fillColor=#dae8fc;strokeColor=#6c8ebf;" parent="VmN694eaUHmi7oUAj-pI-196" vertex="1">
          <mxGeometry x="105" y="150" width="70" height="40" as="geometry" />
        </mxCell>
        <mxCell id="VmN694eaUHmi7oUAj-pI-153" style="edgeStyle=orthogonalEdgeStyle;shape=connector;curved=0;rounded=1;orthogonalLoop=1;jettySize=auto;html=1;exitX=0.5;exitY=1;exitDx=0;exitDy=0;entryX=0.5;entryY=0;entryDx=0;entryDy=0;labelBackgroundColor=default;strokeColor=#6c8ebf;align=center;verticalAlign=middle;fontFamily=Helvetica;fontSize=11;fontColor=default;endArrow=none;endFill=0;fillColor=#dae8fc;" parent="VmN694eaUHmi7oUAj-pI-196" source="VmN694eaUHmi7oUAj-pI-50" target="VmN694eaUHmi7oUAj-pI-51" edge="1">
          <mxGeometry relative="1" as="geometry" />
        </mxCell>
        <mxCell id="VmN694eaUHmi7oUAj-pI-52" value="?" style="rounded=1;whiteSpace=wrap;html=1;fillColor=#dae8fc;strokeColor=#6c8ebf;" parent="VmN694eaUHmi7oUAj-pI-196" vertex="1">
          <mxGeometry x="210" y="80" width="60" height="40" as="geometry" />
        </mxCell>
        <mxCell id="VmN694eaUHmi7oUAj-pI-59" style="edgeStyle=orthogonalEdgeStyle;shape=connector;curved=0;rounded=1;orthogonalLoop=1;jettySize=auto;html=1;exitX=0.5;exitY=1;exitDx=0;exitDy=0;entryX=0.5;entryY=0;entryDx=0;entryDy=0;labelBackgroundColor=default;strokeColor=#6c8ebf;align=center;verticalAlign=middle;fontFamily=Helvetica;fontSize=11;fontColor=default;endArrow=none;endFill=0;fillColor=#dae8fc;" parent="VmN694eaUHmi7oUAj-pI-196" source="VmN694eaUHmi7oUAj-pI-44" target="VmN694eaUHmi7oUAj-pI-52" edge="1">
          <mxGeometry relative="1" as="geometry" />
        </mxCell>
        <mxCell id="VmN694eaUHmi7oUAj-pI-53" value="0到1次&amp;nbsp;" style="rounded=1;whiteSpace=wrap;html=1;fillColor=#dae8fc;strokeColor=#6c8ebf;" parent="VmN694eaUHmi7oUAj-pI-196" vertex="1">
          <mxGeometry x="205" y="150" width="70" height="40" as="geometry" />
        </mxCell>
        <mxCell id="VmN694eaUHmi7oUAj-pI-154" style="edgeStyle=orthogonalEdgeStyle;shape=connector;curved=0;rounded=1;orthogonalLoop=1;jettySize=auto;html=1;exitX=0.5;exitY=1;exitDx=0;exitDy=0;entryX=0.5;entryY=0;entryDx=0;entryDy=0;labelBackgroundColor=default;strokeColor=#6c8ebf;align=center;verticalAlign=middle;fontFamily=Helvetica;fontSize=11;fontColor=default;endArrow=none;endFill=0;fillColor=#dae8fc;" parent="VmN694eaUHmi7oUAj-pI-196" source="VmN694eaUHmi7oUAj-pI-52" target="VmN694eaUHmi7oUAj-pI-53" edge="1">
          <mxGeometry relative="1" as="geometry" />
        </mxCell>
        <mxCell id="VmN694eaUHmi7oUAj-pI-54" value="{m,n}" style="rounded=1;whiteSpace=wrap;html=1;fillColor=#dae8fc;strokeColor=#6c8ebf;" parent="VmN694eaUHmi7oUAj-pI-196" vertex="1">
          <mxGeometry x="320" y="80" width="60" height="40" as="geometry" />
        </mxCell>
        <mxCell id="VmN694eaUHmi7oUAj-pI-60" style="edgeStyle=orthogonalEdgeStyle;shape=connector;curved=0;rounded=1;orthogonalLoop=1;jettySize=auto;html=1;exitX=0.5;exitY=1;exitDx=0;exitDy=0;entryX=0.5;entryY=0;entryDx=0;entryDy=0;labelBackgroundColor=default;strokeColor=#6c8ebf;align=center;verticalAlign=middle;fontFamily=Helvetica;fontSize=11;fontColor=default;endArrow=none;endFill=0;fillColor=#dae8fc;" parent="VmN694eaUHmi7oUAj-pI-196" source="VmN694eaUHmi7oUAj-pI-44" target="VmN694eaUHmi7oUAj-pI-54" edge="1">
          <mxGeometry relative="1" as="geometry" />
        </mxCell>
        <mxCell id="VmN694eaUHmi7oUAj-pI-55" value="m到n次" style="rounded=1;whiteSpace=wrap;html=1;fillColor=#dae8fc;strokeColor=#6c8ebf;" parent="VmN694eaUHmi7oUAj-pI-196" vertex="1">
          <mxGeometry x="315" y="150" width="70" height="40" as="geometry" />
        </mxCell>
        <mxCell id="VmN694eaUHmi7oUAj-pI-155" style="edgeStyle=orthogonalEdgeStyle;shape=connector;curved=0;rounded=1;orthogonalLoop=1;jettySize=auto;html=1;exitX=0.5;exitY=1;exitDx=0;exitDy=0;entryX=0.5;entryY=0;entryDx=0;entryDy=0;labelBackgroundColor=default;strokeColor=#6c8ebf;align=center;verticalAlign=middle;fontFamily=Helvetica;fontSize=11;fontColor=default;endArrow=none;endFill=0;fillColor=#dae8fc;" parent="VmN694eaUHmi7oUAj-pI-196" source="VmN694eaUHmi7oUAj-pI-54" target="VmN694eaUHmi7oUAj-pI-55" edge="1">
          <mxGeometry relative="1" as="geometry" />
        </mxCell>
        <mxCell id="6_15xKx9rI8Wvk1WQRDn-9" style="edgeStyle=orthogonalEdgeStyle;curved=0;rounded=1;orthogonalLoop=1;jettySize=auto;html=1;exitX=0.5;exitY=1;exitDx=0;exitDy=0;entryX=0.5;entryY=0;entryDx=0;entryDy=0;strokeColor=#d6b656;align=center;verticalAlign=middle;fontFamily=Helvetica;fontSize=11;fontColor=default;labelBackgroundColor=default;endArrow=none;endFill=0;fillColor=#fff2cc;" edge="1" parent="1" source="6_15xKx9rI8Wvk1WQRDn-1" target="6_15xKx9rI8Wvk1WQRDn-7">
          <mxGeometry relative="1" as="geometry" />
        </mxCell>
        <mxCell id="6_15xKx9rI8Wvk1WQRDn-1" value="[...]" style="rounded=1;whiteSpace=wrap;html=1;fillColor=#fff2cc;strokeColor=#d6b656;" vertex="1" parent="1">
          <mxGeometry x="510" y="430" width="60" height="40" as="geometry" />
        </mxCell>
        <mxCell id="6_15xKx9rI8Wvk1WQRDn-10" style="edgeStyle=orthogonalEdgeStyle;curved=0;rounded=1;orthogonalLoop=1;jettySize=auto;html=1;exitX=0.5;exitY=1;exitDx=0;exitDy=0;entryX=0.5;entryY=0;entryDx=0;entryDy=0;strokeColor=#d6b656;align=center;verticalAlign=middle;fontFamily=Helvetica;fontSize=11;fontColor=default;labelBackgroundColor=default;endArrow=none;endFill=0;fillColor=#fff2cc;" edge="1" parent="1" source="6_15xKx9rI8Wvk1WQRDn-2" target="6_15xKx9rI8Wvk1WQRDn-8">
          <mxGeometry relative="1" as="geometry" />
        </mxCell>
        <mxCell id="6_15xKx9rI8Wvk1WQRDn-2" value="[^...&lt;span style=&quot;background-color: initial;&quot;&gt;]&lt;/span&gt;" style="rounded=1;whiteSpace=wrap;html=1;fillColor=#fff2cc;strokeColor=#d6b656;" vertex="1" parent="1">
          <mxGeometry x="600" y="430" width="60" height="40" as="geometry" />
        </mxCell>
        <mxCell id="6_15xKx9rI8Wvk1WQRDn-7" value="多选一" style="rounded=1;whiteSpace=wrap;html=1;fillColor=#fff2cc;strokeColor=#d6b656;" vertex="1" parent="1">
          <mxGeometry x="505" y="500" width="70" height="40" as="geometry" />
        </mxCell>
        <mxCell id="6_15xKx9rI8Wvk1WQRDn-8" value="取反" style="rounded=1;whiteSpace=wrap;html=1;fillColor=#fff2cc;strokeColor=#d6b656;" vertex="1" parent="1">
          <mxGeometry x="595" y="500" width="70" height="40" as="geometry" />
        </mxCell>
        <mxCell id="6_15xKx9rI8Wvk1WQRDn-13" style="edgeStyle=orthogonalEdgeStyle;curved=0;rounded=1;orthogonalLoop=1;jettySize=auto;html=1;exitX=0.5;exitY=1;exitDx=0;exitDy=0;entryX=0.5;entryY=0;entryDx=0;entryDy=0;strokeColor=#b85450;align=center;verticalAlign=middle;fontFamily=Helvetica;fontSize=11;fontColor=default;labelBackgroundColor=default;endArrow=none;endFill=0;fillColor=#f8cecc;" edge="1" parent="1" source="VmN694eaUHmi7oUAj-pI-170" target="VmN694eaUHmi7oUAj-pI-173">
          <mxGeometry relative="1" as="geometry" />
        </mxCell>
        <mxCell id="6_15xKx9rI8Wvk1WQRDn-14" style="edgeStyle=orthogonalEdgeStyle;curved=0;rounded=1;orthogonalLoop=1;jettySize=auto;html=1;exitX=0.5;exitY=1;exitDx=0;exitDy=0;entryX=0.5;entryY=0;entryDx=0;entryDy=0;strokeColor=#b85450;align=center;verticalAlign=middle;fontFamily=Helvetica;fontSize=11;fontColor=default;labelBackgroundColor=default;endArrow=none;endFill=0;fillColor=#f8cecc;" edge="1" parent="1" source="VmN694eaUHmi7oUAj-pI-170" target="VmN694eaUHmi7oUAj-pI-175">
          <mxGeometry relative="1" as="geometry" />
        </mxCell>
        <mxCell id="VmN694eaUHmi7oUAj-pI-170" value="匹配模式" style="rounded=1;whiteSpace=wrap;html=1;fillColor=#d80073;strokeColor=#A50040;fontColor=#ffffff;fontStyle=1" parent="1" vertex="1">
          <mxGeometry x="1220" y="785" width="80" height="40" as="geometry" />
        </mxCell>
        <mxCell id="VmN694eaUHmi7oUAj-pI-172" style="edgeStyle=orthogonalEdgeStyle;shape=connector;curved=0;rounded=1;orthogonalLoop=1;jettySize=auto;html=1;exitX=0.5;exitY=1;exitDx=0;exitDy=0;labelBackgroundColor=default;strokeColor=#b85450;align=center;verticalAlign=middle;fontFamily=Helvetica;fontSize=11;fontColor=default;endArrow=none;endFill=0;fillColor=#f8cecc;" parent="1" edge="1">
          <mxGeometry relative="1" as="geometry">
            <mxPoint x="1380" y="830" as="sourcePoint" />
            <mxPoint x="1380" y="830" as="targetPoint" />
          </mxGeometry>
        </mxCell>
        <mxCell id="VmN694eaUHmi7oUAj-pI-173" value="i" style="rounded=1;whiteSpace=wrap;html=1;fillColor=#f8cecc;strokeColor=#b85450;" parent="1" vertex="1">
          <mxGeometry x="1110" y="875" width="70" height="40" as="geometry" />
        </mxCell>
        <mxCell id="VmN694eaUHmi7oUAj-pI-175" value="g" style="rounded=1;whiteSpace=wrap;html=1;fillColor=#f8cecc;strokeColor=#b85450;" parent="1" vertex="1">
          <mxGeometry x="1330" y="875" width="70" height="40" as="geometry" />
        </mxCell>
        <mxCell id="VmN694eaUHmi7oUAj-pI-177" value="不区分大小写&amp;nbsp;" style="rounded=1;whiteSpace=wrap;html=1;fillColor=#f8cecc;strokeColor=#b85450;" parent="1" vertex="1">
          <mxGeometry x="1100" y="955" width="90" height="40" as="geometry" />
        </mxCell>
        <mxCell id="VmN694eaUHmi7oUAj-pI-178" style="edgeStyle=orthogonalEdgeStyle;shape=connector;curved=0;rounded=1;orthogonalLoop=1;jettySize=auto;html=1;exitX=0.5;exitY=1;exitDx=0;exitDy=0;entryX=0.5;entryY=0;entryDx=0;entryDy=0;labelBackgroundColor=default;strokeColor=#b85450;align=center;verticalAlign=middle;fontFamily=Helvetica;fontSize=11;fontColor=default;endArrow=none;endFill=0;fillColor=#f8cecc;" parent="1" source="VmN694eaUHmi7oUAj-pI-173" target="VmN694eaUHmi7oUAj-pI-177" edge="1">
          <mxGeometry relative="1" as="geometry" />
        </mxCell>
        <mxCell id="VmN694eaUHmi7oUAj-pI-182" value="多行匹配模式&lt;br&gt;(是^$匹配每行的开头结尾)" style="rounded=1;whiteSpace=wrap;html=1;fillColor=#f8cecc;strokeColor=#b85450;" parent="1" vertex="1">
          <mxGeometry x="1282.5" y="955" width="165" height="40" as="geometry" />
        </mxCell>
        <mxCell id="VmN694eaUHmi7oUAj-pI-183" style="edgeStyle=orthogonalEdgeStyle;shape=connector;curved=0;rounded=1;orthogonalLoop=1;jettySize=auto;html=1;exitX=0.5;exitY=1;exitDx=0;exitDy=0;entryX=0.5;entryY=0;entryDx=0;entryDy=0;labelBackgroundColor=default;strokeColor=#b85450;align=center;verticalAlign=middle;fontFamily=Helvetica;fontSize=11;fontColor=default;endArrow=none;endFill=0;fillColor=#f8cecc;" parent="1" source="VmN694eaUHmi7oUAj-pI-175" target="VmN694eaUHmi7oUAj-pI-182" edge="1">
          <mxGeometry relative="1" as="geometry" />
        </mxCell>
        <mxCell id="VmN694eaUHmi7oUAj-pI-98" value="断言" style="rounded=1;whiteSpace=wrap;html=1;fillColor=#e1d5e7;strokeColor=#9673a6;fontStyle=1" parent="1" vertex="1">
          <mxGeometry x="750" y="785" width="80" height="40" as="geometry" />
        </mxCell>
        <mxCell id="VmN694eaUHmi7oUAj-pI-100" value="^" style="rounded=1;whiteSpace=wrap;html=1;fillColor=#e1d5e7;strokeColor=#9673a6;" parent="1" vertex="1">
          <mxGeometry x="540" y="955" width="60" height="40" as="geometry" />
        </mxCell>
        <mxCell id="VmN694eaUHmi7oUAj-pI-103" value="$" style="rounded=1;whiteSpace=wrap;html=1;fillColor=#e1d5e7;strokeColor=#9673a6;" parent="1" vertex="1">
          <mxGeometry x="657" y="955" width="60" height="40" as="geometry" />
        </mxCell>
        <mxCell id="VmN694eaUHmi7oUAj-pI-106" style="edgeStyle=orthogonalEdgeStyle;shape=connector;curved=0;rounded=1;orthogonalLoop=1;jettySize=auto;html=1;exitX=0.5;exitY=1;exitDx=0;exitDy=0;entryX=0.5;entryY=0;entryDx=0;entryDy=0;labelBackgroundColor=default;strokeColor=#9673a6;align=center;verticalAlign=middle;fontFamily=Helvetica;fontSize=11;fontColor=default;endArrow=none;endFill=0;fillColor=#e1d5e7;" parent="1" source="VmN694eaUHmi7oUAj-pI-105" target="VmN694eaUHmi7oUAj-pI-100" edge="1">
          <mxGeometry relative="1" as="geometry" />
        </mxCell>
        <mxCell id="VmN694eaUHmi7oUAj-pI-107" style="edgeStyle=orthogonalEdgeStyle;shape=connector;curved=0;rounded=1;orthogonalLoop=1;jettySize=auto;html=1;exitX=0.5;exitY=1;exitDx=0;exitDy=0;entryX=0.5;entryY=0;entryDx=0;entryDy=0;labelBackgroundColor=default;strokeColor=#9673a6;align=center;verticalAlign=middle;fontFamily=Helvetica;fontSize=11;fontColor=default;endArrow=none;endFill=0;fillColor=#e1d5e7;" parent="1" source="VmN694eaUHmi7oUAj-pI-105" target="VmN694eaUHmi7oUAj-pI-103" edge="1">
          <mxGeometry relative="1" as="geometry" />
        </mxCell>
        <mxCell id="VmN694eaUHmi7oUAj-pI-105" value="行边界" style="rounded=1;whiteSpace=wrap;html=1;fillColor=#e1d5e7;strokeColor=#9673a6;" parent="1" vertex="1">
          <mxGeometry x="595" y="875" width="75" height="40" as="geometry" />
        </mxCell>
        <mxCell id="VmN694eaUHmi7oUAj-pI-147" style="edgeStyle=orthogonalEdgeStyle;shape=connector;curved=0;rounded=1;orthogonalLoop=1;jettySize=auto;html=1;exitX=0.5;exitY=1;exitDx=0;exitDy=0;entryX=0.5;entryY=0;entryDx=0;entryDy=0;labelBackgroundColor=default;strokeColor=#9673a6;align=center;verticalAlign=middle;fontFamily=Helvetica;fontSize=11;fontColor=default;endArrow=none;endFill=0;fillColor=#e1d5e7;" parent="1" source="VmN694eaUHmi7oUAj-pI-98" target="VmN694eaUHmi7oUAj-pI-105" edge="1">
          <mxGeometry relative="1" as="geometry" />
        </mxCell>
        <mxCell id="VmN694eaUHmi7oUAj-pI-108" value="\b" style="rounded=1;whiteSpace=wrap;html=1;fillColor=#e1d5e7;strokeColor=#9673a6;" parent="1" vertex="1">
          <mxGeometry x="810" y="955" width="60" height="40" as="geometry" />
        </mxCell>
        <mxCell id="VmN694eaUHmi7oUAj-pI-109" value="\&amp;lt;\&amp;gt;" style="rounded=1;whiteSpace=wrap;html=1;fillColor=#e1d5e7;strokeColor=#9673a6;" parent="1" vertex="1">
          <mxGeometry x="980" y="955" width="60" height="40" as="geometry" />
        </mxCell>
        <mxCell id="VmN694eaUHmi7oUAj-pI-110" style="edgeStyle=orthogonalEdgeStyle;shape=connector;curved=0;rounded=1;orthogonalLoop=1;jettySize=auto;html=1;exitX=0.5;exitY=1;exitDx=0;exitDy=0;entryX=0.5;entryY=0;entryDx=0;entryDy=0;labelBackgroundColor=default;strokeColor=#9673a6;align=center;verticalAlign=middle;fontFamily=Helvetica;fontSize=11;fontColor=default;endArrow=none;endFill=0;fillColor=#e1d5e7;" parent="1" source="VmN694eaUHmi7oUAj-pI-112" target="VmN694eaUHmi7oUAj-pI-108" edge="1">
          <mxGeometry relative="1" as="geometry" />
        </mxCell>
        <mxCell id="VmN694eaUHmi7oUAj-pI-111" style="edgeStyle=orthogonalEdgeStyle;shape=connector;curved=0;rounded=1;orthogonalLoop=1;jettySize=auto;html=1;exitX=0.5;exitY=1;exitDx=0;exitDy=0;entryX=0.5;entryY=0;entryDx=0;entryDy=0;labelBackgroundColor=default;strokeColor=#9673a6;align=center;verticalAlign=middle;fontFamily=Helvetica;fontSize=11;fontColor=default;endArrow=none;endFill=0;fillColor=#e1d5e7;" parent="1" source="VmN694eaUHmi7oUAj-pI-112" target="VmN694eaUHmi7oUAj-pI-109" edge="1">
          <mxGeometry relative="1" as="geometry" />
        </mxCell>
        <mxCell id="VmN694eaUHmi7oUAj-pI-112" value="单词边界" style="rounded=1;whiteSpace=wrap;html=1;fillColor=#e1d5e7;strokeColor=#9673a6;" parent="1" vertex="1">
          <mxGeometry x="885" y="875" width="85" height="40" as="geometry" />
        </mxCell>
        <mxCell id="VmN694eaUHmi7oUAj-pI-145" style="edgeStyle=orthogonalEdgeStyle;shape=connector;curved=0;rounded=1;orthogonalLoop=1;jettySize=auto;html=1;exitX=0.5;exitY=1;exitDx=0;exitDy=0;entryX=0.5;entryY=0;entryDx=0;entryDy=0;labelBackgroundColor=default;strokeColor=#9673a6;align=center;verticalAlign=middle;fontFamily=Helvetica;fontSize=11;fontColor=default;endArrow=none;endFill=0;fillColor=#e1d5e7;" parent="1" source="VmN694eaUHmi7oUAj-pI-98" target="VmN694eaUHmi7oUAj-pI-112" edge="1">
          <mxGeometry relative="1" as="geometry" />
        </mxCell>
      </root>
    </mxGraphModel>
  </diagram>
</mxfile>
